# xmcd
#
# Track frame offsets:
#	150
#	19399
#	34278
#	47937
#
# Disc length: 861 seconds
#
# Revision: 1
# Processed by: cddbd v1.5.2PL0 Copyright (c) Steve Scherf et al.
# Submitted via: audiograbber 1.83.01
#
DISCID=33035b04
DTITLE=Lowder and Lowder - Songwriter Demos
DYEAR=2007
DGENRE=Country
TTITLE0=Grandpa's Little Girl
TTITLE1=I Can't Remember $#!+
TTITLE2=Reno in the Rain
TTITLE3=You Dance in White
EXTD=Producer: Clive Romney\nFor more information, contact Jeff Lowder 801-381-
EXTD=5938
EXTT0=Music: Dan Lowder\nLyrics: Jeff Lowder\nVocals: Tonya Barkdull
EXTT1=Music: Dan Lowder\nLyrics: Jeff Lowder\nVocals: Jeff Hinton
EXTT2=Music: Dan Lowder\nLyrics: Jeff Lowder\nVocals: David Osmond
EXTT3=Music: Dan Lowder and Tom Hopkins\nLyrics: Jeff Lowder\nVocals: Jenn Hinton
PLAYORDER=
